<?xml version="1.0" encoding="utf-8"?>
<!-- Generator: Adobe Illustrator 18.1.1, SVG Export Plug-In . SVG Version: 6.00 Build 0)  -->
<svg version="1.1" xmlns="http://www.w3.org/2000/svg" xmlns:xlink="http://www.w3.org/1999/xlink" x="0px" y="0px"
	 viewBox="0 0 567.8 230.7" enable-background="new 0 0 567.8 230.7" xml:space="preserve">
<g id="Layer_2">
	<path fill="#595850" d="M0,148.8c0,0,39.6,12.6,53.6,48.1c0,0,87.6-39,147-43.9c0,0,5.7,16.6,21.4,14.2c0,0,15.3,1.5,28-19.4
		l14.6-0.6c0,0,0.4,19.8,17.2,19.6c0,0,18.5,4,32.7-21.1c0,0,62.8-1.7,73.1-20.1c0,0,8.6-11.2,1.3-30.7c0,0-5-15.9-25.1-17.5
		c-20.1-1.6-0.5-0.1-0.5-0.1s-14.8,0.2-24.5,9c0,0,0.3-16.9-12.5-22.3c0,0-12.1-6.4-25.2,1.2c0,0-7.9,3.2-25.9,21.2
		c0,0-0.3-14.3-8.2-19.1c0,0-6.5-7.2-21.1-4.9c-14.6,2.2-0.7-0.1-0.7-0.1s-9.6-1.3-32.1,22l9.4-20.7c0,0,5.8-7.8,3.3-14.7
		c0,0-2.3-8.6-13.9-9.7c0,0-8-0.3-14.1,7.5c0,0-4.5,8.1-0.5,15.4L192,63c0,0,0.5,8.3-15.1,20.8c0,0,3.8-16.4-9.6-20.2l-7.5-1.6
		c0,0-3-8.5-14.7-8.8c0,0,15.9-18.2,7.5-33.3c0,0-2.6-11-25.5-18.6c0,0-27.3-8.4-60,17.1c0,0-38.2,29.4-44,63
		c0,0-7.3,34.8,33.9,41.8l-3.6,4.2C53.3,127.4,17.6,132.9,0,148.8z"/>
</g>
<g id="Layer_1">
	<path fill="#FFFFFF" d="M109.4,60.8c0,0,35.2-0.6,36.8-33.9c0,0-9.8-36.5-64.8-9c0,0-49.9,26.8-51.2,75.1c0,0,7.8,33.2,45.6,20.1
		L56.3,135c0,0-39.6,7.2-41,12.1c0,0,34.7,21.5,43.6,40.8c0,0,67.5-35.9,149.7-43.9c0,0-3.7,17.7,13.2,16c0,0,12.7,0.6,23.3-19.1
		l29.9-0.4c0,0-9.8,18.1,9.5,19.7c0,0,12,3.5,25.9-21.6c0,0,65.1-1,70.3-16.5c0,0,8.8-7.5,0-27.1c0,0-10.2-19.4-33.7-5L317.3,113
		l-2.4-6.3c0,0,26.2-17.5,11.6-32.7c0,0-11.3-14.5-35.6,7.6c0,0-33.2,30.9-37.2,30.8l-2.4-5.9c0,0,23.6-15.1,12.5-31.9
		c0,0-10.6-18.1-42.7,11.9c0,0-15.8,17.2-24.6,18.7c0,0-6.8,11.7,13.4-34.5l-12.7-0.6c0,0-5.5,18.7-39.5,34.4
		c0,0,16.3-26.6,11.4-30.8c0,0-4.1-6.1-12.1-3.2l-3.3-0.3c0,0-0.5-8.8-6.2-9c0,0-3.8-2.4-9.3,2.4c0,0-2.5,8.5,1,10.5
		c0,0-10.8,18.4-18.6,22.3l0.7,10.1c0,0,21.5-14,26.9-25.2l6.5-1.4c0,0-5.4,13.9-6.4,14.4l-7.8,18.4c0,0,1.9,7.8,11.1,6.4
		c0,0,22.9-8.1,29.4-15.9c0,0-4,13.2-0.6,13.4c0,0,17.4,9.2,44.4-19.2c0,0,21.6-22,25.8-17.6c0,0,8.6,4.5-0.7,14l-7.8,7.6
		c0,0-13.5-2-17.4,6.7c0,0-4.5,8.2,14.2,5.2c0,0,2.7,6.4-1.9,8.9c0,0-148,3.5-153.8,7.9l28.6-39.1c0,0,16.4-9.2,8.7-19.9
		c0,0-6.8-8.7-20.6,8.7c0,0-7.4,10.3-18.4,13.9c0,0-21,12.7-30.1,3.1c0,0-18-4.4,21.1-50.9c0,0,29.9-30.8,51.3-20.8
		c0,0,17.9,8.8-10.7,20.1L109.4,60.8z"/>
	<circle fill="#FFFFFF" cx="211.4" cy="54.8" r="8"/>
	<path fill="#595850" d="M344.4,113.4l12.8-7.8c0,0,5.1,2.8-0.7,7.6L344.4,113.4z"/>
	<path fill="#595850" d="M301,116c0,0,5.6,4.3-0.8,8.2l-42.7,0.3c0,0,22.6-17.7,28.2-21.5c0,0,16.3-19.8,28.5-21.2
		c0,0,4.7,3.2,2.7,8.1c0,0-4.4,11.9-11.2,14c0,0-10.2-1.1-16,4C289.7,108,282.1,121.5,301,116z"/>
	<g>
		<path fill="#595850" d="M149.5,184.7c-0.9,0-1.9-0.4-2.7-1.2c1.6-0.9,2.7-3.1,2.7-5.1c0-2.1-1.2-4-4.3-4c-3.2,0-5.5,1.9-5.5,5.1
			c0,9.3,13.3,9.8,13.3,23c0,8.3-6.1,13.7-15.6,13.7c-4.7,0-13-1-13-9.5c0-5.5,4.1-8.5,8.7-8.5c2.7,0,4.3,0.9,4.8,3
			c-4.8,0.4-6.9,2.4-6.9,6.5c0,4,3.1,5.7,5.8,5.7c4.7,0,6.5-4.1,6.5-8.4c0-11.1-12.7-13.5-12.7-22.3c0-6.2,7-11,14-11
			c3.1,0,9.9,0.5,9.9,7.1C154.4,182.1,152.5,184.7,149.5,184.7z"/>
		<path fill="#595850" d="M184.1,186.4l-12,8.1c0.5-0.1,1-0.2,1.5-0.2c3.2,0,6.8,3.4,6.8,7.3c0,0.5-0.1,1-0.2,1.5l-0.8,3.4
			c-0.2,0.6-0.3,1.3-0.3,1.9c0,1.3,0.6,2.2,3,2.2c2.4,0,4.4-3.3,6.8-5.2h2c-2.7,2.7-8.4,10.6-13,10.6c-4.5,0-7.4-2-7.4-6.3
			c0-0.9,0.1-2,0.4-3.1l0.6-2.7c0.1-0.5,0.2-1.1,0.2-1.5c0-2.1-1.1-3.5-2.7-3.5c-1.5,0-2.5,0.5-3.8,1.3L162,216h-8.5l8.6-40.1
			l8.7-1.2l-4.4,20.7c4.4-3.5,11.4-8.9,11.4-8.9H184.1z"/>
		<path fill="#595850" d="M213.1,186.4l-5.5,25.8c3.7-1.8,7-4.4,9-8.7l-0.2,4.7c-0.8,3.7-4.8,5.5-9.4,6.8l-1.2,5.7
			c-1.8,8.4-6.7,10-10.6,10c-3.6,0-7-2.5-7-6.4c0-5.4,4.5-7.2,10.1-8.9l0.8-4c-2.7,2.4-5.5,4.5-7.9,4.5c-4.5,0-7.4-2-7.4-6.4
			c0-0.9,0.1-1.9,0.4-3l4.2-20.1h8.5l-4.2,20.1c-0.1,0.6-0.2,1.3-0.2,1.8c0,1.3,0.6,2.2,3,2.2c1.3,0,2.9-1,4.4-2.3l4.7-21.8H213.1z
			 M193.8,225.5c1.2,0,2.7-1.1,3.4-4.6l0.7-3.4c-3.7,1.2-6.5,2.9-6.5,6.1C191.5,224.3,192.5,225.5,193.8,225.5z"/>
		<path fill="#595850" d="M230.1,174.6l-6.8,31.9c-0.2,0.9-0.3,1.4-0.3,1.9c0,1.3,0.6,2.2,3,2.2c2.4,0,5.4-3.3,7.8-5.2h2
			c-2.7,2.7-9.4,10.6-14,10.6c-4.5,0-7.3-2-7.3-6.4c0-0.9,0.1-1.9,0.4-3l6.5-30.7L230.1,174.6z"/>
		<path fill="#595850" d="M243.7,186.4l-4.2,20.1c-0.1,0.6-0.2,1.3-0.2,1.8c0,1.3,0.6,2.2,3,2.2s5.4-3.3,7.8-5.2h2
			c-2.7,2.7-9.4,10.6-14,10.6c-4.5,0-7.4-2-7.4-6.4c0-0.9,0.1-1.9,0.4-3l4.2-20.1H243.7z M241,173.9c2.6,0,4.7,2.1,4.7,4.7
			c0,2.6-2.1,4.7-4.7,4.7c-2.6,0-4.7-2.1-4.7-4.7C236.3,176.1,238.4,173.9,241,173.9z"/>
		<path fill="#595850" d="M270.7,206.5c-0.2,0.6-0.3,1.3-0.3,1.9c0,1.3,0.6,2.2,3,2.2c2.4,0,3.2-1.8,5.6-3.7h2
			c-2.7,2.7-7.2,9.1-11.8,9.1s-7.3-2-7.3-6.4c0-0.9,0.1-1.9,0.4-3l2.2-10.6c0.1-0.5,0.2-1.1,0.2-1.5c0-2.1-1.1-3.5-2.7-3.5
			c-1.4,0-2.5,0.4-3.7,1.2l-5,23.8h-8.5l6.3-29.5h8.5l-0.7,3.2c2.4-1.8,5.1-3.2,7.7-3.2c3.2,0,6.8,3.4,6.8,7.4c0,0.5,0,0.9-0.1,1.4
			L270.7,206.5z"/>
		<path fill="#595850" d="M276,206.6c0-7.5,3.2-20.7,13.9-20.7c4.8,0,7.6,2,7.6,6.1c0,7.2-7.7,11.3-13.3,12
			c-0.1,0.9-0.2,1.8-0.2,2.5c0,3.9,1.9,5.1,4.2,5.1c2.8,0,5.1-1.6,7.6-3.8c0,6.4-5.1,8-11,8C279,216,276,211.6,276,206.6z
			 M291.8,189c-3.3,0-6,6.7-7.3,12.2c5.4-0.1,9.3-4.7,9.3-8.9C293.9,191.1,293.6,189,291.8,189z"/>
		<path fill="#595850" d="M338.5,184.7c-0.9,0-1.9-0.4-2.7-1.2c1.6-0.9,2.7-3.1,2.7-5.1c0-2.1-1.2-4-4.3-4c-3.2,0-5.5,1.9-5.5,5.1
			c0,9.3,13.3,9.8,13.3,23c0,8.3-6.1,13.7-15.6,13.7c-4.7,0-13-1-13-9.5c0-5.5,4.1-8.5,8.7-8.5c2.7,0,4.3,0.9,4.8,3
			c-4.8,0.4-6.9,2.4-6.9,6.5c0,4,3.1,5.7,5.8,5.7c4.7,0,6.5-4.1,6.5-8.4c0-11.1-12.7-13.5-12.7-22.3c0-6.2,7-11,14-11
			c3.1,0,9.9,0.5,9.9,7.1C343.4,182.1,341.6,184.7,338.5,184.7z"/>
		<path fill="#595850" d="M362.5,190.6c0-1.4-0.9-2-2.2-2c-5,0-8.1,9.6-8.1,16c0,3.5,0.7,6.3,4.3,6.3c4.2,0,7.6-2.5,10.3-5.5h2
			c-2.8,3.2-6,10.6-16.5,10.6c-4.9,0-8.1-2.7-8.1-9.7c0-8.6,3.7-20,15.2-20c3.2,0,6.5,0.8,6.5,4.1c0,0.6-0.1,1.2-0.3,1.9
			c-0.3-0.2-0.8-0.4-1.5-0.4c-0.5,0-1.1,0.1-1.9,0.4C362.3,191.6,362.5,191.1,362.5,190.6z"/>
		<path fill="#595850" d="M390.1,206.5c-0.2,0.7-0.3,1.4-0.3,1.9c0,1.3,0.6,2.2,3,2.2c2.4,0,5.4-3.3,7.8-5.2h2
			c-2.7,2.7-9.4,10.6-14,10.6c-4.6,0-7.3-2-7.3-6.4c0-0.9,0.1-1.9,0.4-3l2.2-10.6c0.1-0.5,0.2-1.1,0.2-1.5c0-2.1-1.1-3.5-2.7-3.5
			c-1.4,0-2.5,0.4-3.7,1.2l-5.1,23.8h-8.5l8.6-40.1l8.7-1.2l-3.2,14.9c2.4-1.7,5.1-3.1,7.7-3.1c3.2,0,6.8,3.4,6.8,7.4
			c0,0.5,0,0.9-0.1,1.4L390.1,206.5z"/>
		<path fill="#595850" d="M408.5,211.7c2.9,0,7.8-3.4,9.9-7.8h2.7c-3.4,6.1-9,12-16.6,12c-5.7,0-8.7-4.3-8.7-9.4
			c0-7.5,3.2-20.7,13.9-20.7c4.8,0,7.6,2,7.6,6.1c0,7.2-7.7,11.3-13.3,12c-0.1,0.9-0.2,1.8-0.2,2.5
			C403.6,210.5,406.2,211.7,408.5,211.7z M411.6,189c-3.3,0-6,6.7-7.3,12.2c5.4-0.1,9.3-4.7,9.3-8.9
			C413.6,191.1,413.3,189,411.6,189z"/>
		<path fill="#595850" d="M447.7,174.6l-6.7,31.9c-0.1,0.6-0.3,1.3-0.3,1.9c0,1.3,0.6,2.2,3,2.2c2.4,0,5.4-3.3,7.8-5.2h2
			c-2.7,2.7-9.4,10.6-14,10.6c-3.8,0-6.4-1.4-7.1-4.5c-1.8,2.4-4.4,4.8-8,4.8c-5.7,0-7.3-4-7.3-7.5c0-10.1,3.7-22.3,15.5-22.3
			c1.4,0,2.9,0.6,4,1.5l2.6-12.2L447.7,174.6z M424.9,207.2c0,3.5,1.9,4.2,3.4,4.2c1.4,0,2.7-1.3,3.8-3c0.1-0.6,0.2-1.2,0.4-1.9
			l3.3-15.6c-0.9-0.8-2.1-1.1-2.9-1.1C428.5,189.8,424.9,199.2,424.9,207.2z"/>
		<path fill="#595850" d="M476.2,186.4l-4.2,20.1c-0.1,0.6-0.2,1.3-0.2,1.8c0,1.3,0.6,2.2,3,2.2c2.4,0,5.4-3.3,7.8-5.2h2
			c-2.7,2.7-9.4,10.6-14,10.6c-4,0-6.7-1.5-7.3-5c-2.8,2.6-6,5-8.5,5c-4.5,0-7.4-2-7.4-6.4c0-0.9,0.1-1.9,0.4-3l4.2-20.1h8.5
			l-4.2,20.1c-0.1,0.6-0.2,1.3-0.2,1.8c0,1.3,0.6,2.2,3,2.2c1.2,0,2.7-0.9,4.2-2.1c0.1-0.6,0.2-1.2,0.4-1.9l4.2-20.1H476.2z"/>
		<path fill="#595850" d="M494.1,174.6l-6.8,31.9c-0.2,0.9-0.3,1.4-0.3,1.9c0,1.3,0.6,2.2,3,2.2c2.4,0,5.4-3.3,7.8-5.2h2
			c-2.7,2.7-9.4,10.6-14,10.6c-4.5,0-7.3-2-7.3-6.4c0-0.9,0.1-1.9,0.4-3l6.5-30.7L494.1,174.6z"/>
		<path fill="#595850" d="M507.7,186.4l-4.2,20.1c-0.1,0.6-0.2,1.3-0.2,1.8c0,1.3,0.6,2.2,3,2.2s5.4-3.3,7.8-5.2h2
			c-2.7,2.7-9.4,10.6-14,10.6c-4.5,0-7.4-2-7.4-6.4c0-0.9,0.1-1.9,0.4-3l4.2-20.1H507.7z M504.9,173.9c2.6,0,4.7,2.1,4.7,4.7
			c0,2.6-2.1,4.7-4.7,4.7c-2.6,0-4.7-2.1-4.7-4.7C500.3,176.1,502.4,173.9,504.9,173.9z"/>
		<path fill="#595850" d="M534.7,206.5c-0.2,0.6-0.3,1.3-0.3,1.9c0,1.3,0.6,2.2,3,2.2c2.4,0,3.2-1.8,5.6-3.7h2
			c-2.7,2.7-7.2,9.1-11.8,9.1s-7.3-2-7.3-6.4c0-0.9,0.1-1.9,0.4-3l2.2-10.6c0.1-0.5,0.2-1.1,0.2-1.5c0-2.1-1.1-3.5-2.7-3.5
			c-1.4,0-2.5,0.4-3.7,1.2l-5,23.8h-8.5l6.3-29.5h8.5l-0.7,3.2c2.4-1.8,5.1-3.2,7.7-3.2c3.2,0,6.8,3.4,6.8,7.4c0,0.5,0,0.9-0.1,1.4
			L534.7,206.5z"/>
		<path fill="#595850" d="M539.3,208.8c0-8.1,3.1-22.3,14.6-22.3c2.1,0,3.8,1.2,4.7,2.8l0.6-2.8h8.6l-7.2,34.2
			c-1.8,8.4-6.8,10-10.7,10c-3.6,0-7-2.5-7-6.4c0-5.4,4.4-6.3,9.9-7.3l0.7-3.2c-1.8,1.4-4.1,2.5-6.8,2.5
			C541,216.3,539.3,212.3,539.3,208.8z M548.5,225.5c1.2,0,2.7-1.1,3.5-4.6l0.4-1.9c-3.7,0.6-6.3,1.4-6.3,4.6
			C546.1,224.3,547.2,225.5,548.5,225.5z M546.6,207.7c0,2.8,1.7,3.7,4.3,3.7c1.1,0,2.3-0.8,3.4-1.9l3.7-17.1
			c-0.9-1.8-2.4-2.5-3.4-2.5C548.8,189.8,546.6,202.6,546.6,207.7z"/>
	</g>
</g>
</svg>
